<svg xmlns="http://www.w3.org/2000/svg" viewBox="0 0 120 120"><g fill="none" stroke="#0c0c0d" stroke-width="1" stroke-linecap="round" stroke-linejoin="round">
<circle cx="38" cy="60" r="15" fill="none" />
<circle cx="38" cy="60" r="7" fill="none" stroke-dasharray="1.5 3" />
<line x1="38" y1="53" x2="38" y2="45" />
<line x1="42.95" y1="55.05" x2="48.61" y2="49.39" />
<line x1="45" y1="60" x2="53" y2="60" />
<line x1="42.95" y1="64.95" x2="48.61" y2="70.61" />
<line x1="38" y1="67" x2="38" y2="75" />
<line x1="33.05" y1="64.95" x2="27.39" y2="70.61" />
<line x1="31" y1="60" x2="23" y2="60" />
<line x1="33.05" y1="55.05" x2="27.39" y2="49.39" />
<circle cx="38" cy="60" r="1.6" fill="#0c0c0d" stroke="none" />
<circle cx="82" cy="60" r="15" fill="none" />
<circle cx="82" cy="60" r="7" fill="none" stroke-dasharray="1.5 3" />
<line x1="82" y1="53" x2="82" y2="45" />
<line x1="86.95" y1="55.05" x2="92.61" y2="49.39" />
<line x1="89" y1="60" x2="97" y2="60" />
<line x1="86.95" y1="64.95" x2="92.61" y2="70.61" />
<line x1="82" y1="67" x2="82" y2="75" />
<line x1="77.05" y1="64.95" x2="71.39" y2="70.61" />
<line x1="75" y1="60" x2="67" y2="60" />
<line x1="77.05" y1="55.05" x2="71.39" y2="49.39" />
<circle cx="82" cy="60" r="1.6" fill="#0c0c0d" stroke="none" />
<path d="M 38,43 A 26,24 0 0 1 82,43" fill="none" />
<line x1="82" y1="43" x2="76.2" y2="39.09" /><line x1="82" y1="43" x2="82" y2="36" />
<path d="M 82,77 A 26,24 0 0 1 38,77" fill="none" stroke-dasharray="2 2.5" />
<line x1="38" y1="77" x2="43.8" y2="80.91" /><line x1="38" y1="77" x2="38" y2="84" />
<circle cx="60" cy="60" r="49" fill="none" stroke-dasharray="1.5 4" />
</g></svg>
